<?xml version="1.0" encoding="utf-8"?>
<!-- Generator: Adobe Illustrator 16.0.3, SVG Export Plug-In . SVG Version: 6.00 Build 0)  -->
<svg version="1.2" baseProfile="tiny" xmlns="http://www.w3.org/2000/svg" xmlns:xlink="http://www.w3.org/1999/xlink" x="0px"
	 y="0px" width="50px" height="50px" viewBox="0 0 50 50" xml:space="preserve">
<g id="Ebene_1" display="none">
	<path display="inline" fill="#3C3C3C" d="M0.706,24.02L19.338,4.854c0,0,2.218-2.341,2.218,0.198c0,2.54,0,8.691,0,8.691
		s1.492,0,3.786,0c6.564,0,18.483,0,23.34,0c0,0,1.318-0.345,1.318,1.658c0,2.002,0,18.267,0,19.703c0,1.438-1.1,1.395-1.1,1.395
		c-4.731,0-17.063,0-23.39,0c-2.069,0-3.412,0-3.412,0s0,4.931,0,8.029c0,3.087-2.301,0.758-2.301,0.758S2.375,28.42,0.559,26.608
		C-0.779,25.27,0.706,24.02,0.706,24.02z"/>
</g>
<g id="Ebene_2">
	<g id="_x3C_Group_x3E__25_">
		<path fill="#3C3C3C" d="M36.027,7.5c2.612,0,4.729,2.268,4.729,5.061v24.882c0,2.794-2.116,5.057-4.729,5.057H13.97
			c-2.612,0-4.726-2.263-4.726-5.057V12.561c0-2.793,2.114-5.061,4.726-5.061H36.027 M36.027,10.03H13.97
			c-1.304,0-2.362,1.133-2.362,2.531v24.882c0,1.396,1.058,2.529,2.362,2.529h22.058c1.302,0,2.362-1.133,2.362-2.529V12.561
			C38.39,11.163,37.329,10.03,36.027,10.03L36.027,10.03z M14.555,10.99c-1.204,0-1.874,0.664-1.874,1.643v6.449
			c0,0.627,0.288,1.348,1.49,1.348h21.822c1.199,0,1.321-0.741,1.321-1.18v-6.461c0-0.939-0.353-1.799-1.555-1.799H14.555z
			 M14.555,21.625c-0.711,0-1.514-0.035-1.514,1.413v5.002c0,1.143,0.307,1.695,1.348,1.695h7.892c1.477,0,1.343-0.947,1.343-1.525
			v-5.041c0-1.209-0.404-1.544-1.276-1.544H14.555z M27.301,21.781c-0.713,0-1.514,0.153-1.514,1.301v13.839
			c0,1.584,0.303,1.71,1.343,1.71h8.308c0.783,0,0.932,0.074,0.932-1.127V23.629c0-1.527-0.4-1.849-1.273-1.849H27.301z
			 M14.476,30.889c-0.711,0-1.512-0.032-1.512,1.412v5.004c0,1.143,0.305,1.695,1.343,1.695h7.896c1.477,0,1.341-0.949,1.341-1.526
			v-5.038c0-1.21-0.401-1.547-1.274-1.547H14.476z M29.131,14.702v2.204c0,0.498-0.027,0.862-0.082,1.093
			c-0.055,0.228-0.166,0.441-0.338,0.637c-0.173,0.201-0.379,0.345-0.621,0.432c-0.243,0.084-0.511,0.129-0.811,0.129
			c-0.393,0-0.722-0.045-0.982-0.137c-0.262-0.091-0.47-0.233-0.626-0.426c-0.151-0.193-0.265-0.396-0.327-0.609
			c-0.064-0.213-0.097-0.553-0.097-1.016v-2.305c0-0.604,0.052-1.061,0.154-1.36c0.104-0.305,0.314-0.545,0.625-0.727
			c0.31-0.181,0.688-0.272,1.132-0.272c0.359,0,0.687,0.062,0.97,0.186c0.285,0.129,0.498,0.285,0.642,0.466
			c0.142,0.181,0.235,0.389,0.285,0.615C29.105,13.837,29.131,14.204,29.131,14.702z M28.233,14.061c0-0.382-0.06-0.622-0.187-0.716
			c-0.129-0.097-0.421-0.144-0.885-0.144c-0.456,0-0.761,0.05-0.904,0.149c-0.146,0.104-0.221,0.339-0.221,0.711v3.504
			c0,0.416,0.072,0.669,0.203,0.753c0.139,0.089,0.434,0.131,0.888,0.131c0.453,0,0.753-0.052,0.899-0.151
			c0.139-0.102,0.206-0.33,0.206-0.682V14.061z M34.838,14.702v2.204c0,0.498-0.027,0.862-0.084,1.093
			c-0.053,0.228-0.161,0.441-0.335,0.637c-0.173,0.201-0.379,0.345-0.622,0.432c-0.24,0.084-0.51,0.129-0.811,0.129
			c-0.394,0-0.724-0.045-0.979-0.137c-0.266-0.091-0.469-0.233-0.627-0.426c-0.154-0.193-0.266-0.396-0.33-0.609
			c-0.066-0.213-0.099-0.553-0.099-1.016v-2.305c0-0.604,0.052-1.061,0.158-1.36c0.106-0.305,0.313-0.545,0.622-0.727
			c0.313-0.181,0.689-0.272,1.133-0.272c0.361,0,0.687,0.062,0.967,0.186c0.287,0.129,0.5,0.285,0.642,0.466s0.238,0.389,0.29,0.615
			C34.813,13.837,34.838,14.204,34.838,14.702z M33.941,14.061c0-0.382-0.063-0.622-0.189-0.716
			c-0.123-0.097-0.421-0.144-0.885-0.144c-0.453,0-0.756,0.05-0.901,0.149c-0.144,0.104-0.221,0.339-0.221,0.711v3.504
			c0,0.416,0.069,0.669,0.206,0.753c0.139,0.089,0.431,0.131,0.887,0.131c0.451,0,0.751-0.052,0.895-0.151
			c0.142-0.102,0.209-0.33,0.209-0.682V14.061z M21.497,26.844h-2.261v2.313h-1.968v-2.313h-2.292v-1.965h2.292v-2.245h1.968v2.245
			h2.261V26.844z M21.293,36.039H15.38v-2.243h5.914V36.039z M33.908,28.847h-5.91v-2.243h5.91V28.847z M33.958,32.596H28.05v-2.242
			h5.908V32.596z"/>
	</g>
</g>
</svg>
