<?xml version="1.0" encoding="utf-8"?>
<!-- Generator: Adobe Illustrator 16.0.3, SVG Export Plug-In . SVG Version: 6.00 Build 0)  -->
<svg version="1.2" baseProfile="tiny" xmlns="http://www.w3.org/2000/svg" xmlns:xlink="http://www.w3.org/1999/xlink" x="0px"
	 y="0px" width="50px" height="50px" viewBox="0 0 50 50" xml:space="preserve">
<g id="Ebene_1" display="none">
	<path display="inline" fill="#3C3C3C" d="M0.706,24.02L19.338,4.854c0,0,2.218-2.341,2.218,0.198c0,2.54,0,8.691,0,8.691
		s1.492,0,3.786,0c6.564,0,18.483,0,23.34,0c0,0,1.318-0.345,1.318,1.658c0,2.002,0,18.267,0,19.703c0,1.438-1.1,1.395-1.1,1.395
		c-4.731,0-17.063,0-23.39,0c-2.069,0-3.412,0-3.412,0s0,4.931,0,8.029c0,3.087-2.301,0.758-2.301,0.758S2.375,28.42,0.559,26.608
		C-0.779,25.27,0.706,24.02,0.706,24.02z"/>
</g>
<g id="Ebene_2">
	<g>
		<path fill="#3C3C3C" d="M29.257,7.5c2.343,0,3.515,1.599,3.515,3.426c0,2.283-2.035,4.394-4.687,4.394
			c-2.22,0-3.516-1.313-3.454-3.481C24.631,10.012,26.172,7.5,29.257,7.5z M22.04,42.5c-1.851,0-3.208-1.142-1.912-6.166
			l2.125-8.909c0.37-1.427,0.431-1.998,0-1.998c-0.556,0-2.958,0.986-4.378,1.957l-0.924-1.542
			c4.502-3.824,9.682-6.067,11.901-6.067c1.85,0,2.158,2.227,1.234,5.652l-2.434,9.366c-0.432,1.655-0.246,2.227,0.186,2.227
			c0.555,0,2.375-0.688,4.164-2.115l1.048,1.428C28.671,40.785,23.891,42.5,22.04,42.5z"/>
	</g>
</g>
</svg>
