<?xml version="1.0" encoding="utf-8"?>
<!-- Generator: Adobe Illustrator 16.0.3, SVG Export Plug-In . SVG Version: 6.00 Build 0)  -->
<svg version="1.2" baseProfile="tiny" xmlns="http://www.w3.org/2000/svg" xmlns:xlink="http://www.w3.org/1999/xlink" x="0px"
	 y="0px" width="50px" height="50px" viewBox="0 0 50 50" xml:space="preserve">
<g id="Ebene_1" display="none">
	<path display="inline" fill="#3C3C3C" d="M0.706,24.02L19.338,4.854c0,0,2.218-2.341,2.218,0.198c0,2.54,0,8.691,0,8.691
		s1.492,0,3.786,0c6.564,0,18.483,0,23.34,0c0,0,1.318-0.345,1.318,1.658c0,2.002,0,18.267,0,19.703c0,1.438-1.1,1.395-1.1,1.395
		c-4.731,0-17.063,0-23.39,0c-2.069,0-3.412,0-3.412,0s0,4.931,0,8.029c0,3.087-2.301,0.758-2.301,0.758S2.375,28.42,0.559,26.608
		C-0.779,25.27,0.706,24.02,0.706,24.02z"/>
</g>
<g id="Ebene_2">
	<g>
		<path fill="#3C3C3C" d="M29.485,22.137l-0.645-1.529c0,0,1.497-3.376,1.366-3.505l-1.98-1.935
			c-0.138-0.134-3.516,1.407-3.516,1.407l-1.559-0.63c0,0-1.379-3.422-1.566-3.422h-2.799c-0.194,0-1.467,3.431-1.467,3.431
			l-1.557,0.632c0,0-3.451-1.466-3.583-1.34l-1.979,1.939c-0.137,0.136,1.439,3.443,1.439,3.443l-0.643,1.529
			c0,0-3.497,1.344-3.497,1.529v2.742c0,0.189,3.505,1.438,3.505,1.438l0.644,1.524c0,0-1.497,3.378-1.365,3.507l1.982,1.938
			c0.133,0.131,3.513-1.411,3.513-1.411l1.56,0.634c0,0,1.377,3.42,1.566,3.42h2.798c0.191,0,1.469-3.432,1.469-3.432l1.559-0.632
			c0,0,3.446,1.467,3.58,1.34l1.98-1.939c0.136-0.131-1.441-3.44-1.441-3.44l0.644-1.529c0,0,3.499-1.349,3.499-1.533v-2.74
			C32.992,23.385,29.485,22.137,29.485,22.137z M20.246,28.998c-2.25,0-4.084-1.794-4.084-3.999c0-2.202,1.833-3.996,4.084-3.996
			c2.253,0,4.084,1.794,4.084,3.996C24.33,27.204,22.499,28.998,20.246,28.998z"/>
		<path fill="#3C3C3C" d="M41.194,18.946l0.017-0.798c0,0,1.32-1.188,1.289-1.271l-0.489-1.238
			c-0.037-0.085-1.821-0.074-1.821-0.074l-0.561-0.581c0,0,0.067-1.773-0.016-1.811l-1.229-0.551
			c-0.087-0.04-1.318,1.222-1.318,1.222l-0.807-0.032c0,0-1.229-1.322-1.312-1.289l-1.251,0.463
			c-0.085,0.03-0.044,1.792-0.044,1.792l-0.583,0.546c0,0-1.799-0.097-1.836-0.016l-0.539,1.204
			c-0.037,0.085,1.259,1.321,1.259,1.321l-0.017,0.793c0,0-1.318,1.19-1.287,1.273l0.486,1.241c0.035,0.083,1.823,0.069,1.823,0.069
			l0.558,0.583c0,0-0.065,1.773,0.018,1.811l1.23,0.549c0.084,0.039,1.316-1.215,1.316-1.215l0.81,0.028
			c0,0,1.225,1.321,1.309,1.291l1.249-0.463c0.087-0.03,0.046-1.794,0.046-1.794l0.582-0.542c0,0,1.799,0.092,1.837,0.012
			l0.539-1.204C42.488,20.182,41.194,18.946,41.194,18.946z M38.368,19.19c-0.434,0.969-1.59,1.397-2.581,0.955
			c-0.987-0.44-1.439-1.589-1.007-2.56c0.433-0.966,1.592-1.393,2.579-0.952C38.347,17.078,38.801,18.224,38.368,19.19z"/>
	</g>
</g>
</svg>
